<svg width="100" height="100" viewBox="0 0 100 100" fill="none" xmlns="http://www.w3.org/2000/svg">
<path d="M97.9795 48.5C98.5153 49.4282 98.5153 50.5718 97.9795 51.5L75.2891 90.8008C74.7532 91.729 73.7622 92.3018 72.6904 92.3018H27.3096C26.2378 92.3018 25.2469 91.7298 24.7109 90.8018L2.02051 51.5C1.48468 50.5718 1.48468 49.4282 2.02051 48.5L24.7109 9.19922C25.2468 8.27102 26.2378 7.69922 27.3096 7.69922H72.6904C73.7622 7.69922 74.7531 8.27016 75.2891 9.19824L97.9795 48.5Z" fill="#4E5798" stroke="#54B06D" stroke-width="2"/>
<path d="M61.3367 38.6561C59.8622 37.1746 58.1062 36 56.1709 35.2007C54.2356 34.4013 52.1597 33.9932 50.0643 34.0001C41.2844 34.0001 34.1286 41.1201 34.1286 49.856C34.1286 52.656 34.8683 55.376 36.2513 57.776L34 66L42.4422 63.792C44.7739 65.056 47.395 65.728 50.0643 65.728C58.8442 65.728 66 58.608 66 49.872C66 45.6321 64.3437 41.6481 61.3367 38.6561ZM50.0643 63.04C47.6844 63.04 45.3528 62.4 43.3106 61.2L42.8281 60.912L37.8111 62.224L39.1457 57.36L38.8241 56.864C37.5016 54.7633 36.7995 52.3349 36.798 49.856C36.798 42.5921 42.7477 36.6721 50.0482 36.6721C53.5859 36.6721 56.9146 38.0481 59.407 40.5441C60.6414 41.7662 61.6196 43.2201 62.2848 44.8214C62.9501 46.4226 63.2892 48.1394 63.2824 49.872C63.3146 57.136 57.3648 63.04 50.0643 63.04ZM57.3327 53.184C56.9307 52.992 54.9688 52.032 54.6151 51.888C54.2452 51.76 53.9879 51.696 53.7146 52.08C53.4412 52.48 52.6854 53.376 52.4603 53.632C52.2352 53.904 51.994 53.936 51.592 53.728C51.1899 53.536 49.9035 53.104 48.392 51.76C47.202 50.704 46.4141 49.408 46.1729 49.008C45.9477 48.608 46.1407 48.4 46.3497 48.192C46.5266 48.016 46.7518 47.728 46.9447 47.5041C47.1377 47.2801 47.2181 47.1041 47.3467 46.8481C47.4754 46.5761 47.4111 46.3521 47.3146 46.1601C47.2181 45.9681 46.4141 44.0161 46.0925 43.2161C45.7709 42.4481 45.4332 42.5441 45.192 42.5281H44.4201C44.1467 42.5281 43.7286 42.6241 43.3588 43.0241C43.005 43.4241 41.9759 44.3841 41.9759 46.3361C41.9759 48.288 43.407 50.176 43.6 50.432C43.793 50.704 46.4141 54.704 50.402 56.416C51.3508 56.832 52.0905 57.072 52.6693 57.248C53.6181 57.552 54.4864 57.504 55.1779 57.408C55.9497 57.296 57.5417 56.448 57.8633 55.52C58.201 54.592 58.201 53.808 58.0884 53.632C57.9759 53.456 57.7347 53.376 57.3327 53.184Z" fill="#92C658"/>
</svg>
