<svg width="100" height="100" viewBox="0 0 100 100" fill="none" xmlns="http://www.w3.org/2000/svg">
<path d="M97.9795 48.5C98.5153 49.4282 98.5153 50.5718 97.9795 51.5L75.2891 90.8008C74.7532 91.729 73.7622 92.3018 72.6904 92.3018H27.3096C26.2378 92.3018 25.2469 91.7298 24.7109 90.8018L2.02051 51.5C1.48468 50.5718 1.48468 49.4282 2.02051 48.5L24.7109 9.19922C25.2468 8.27102 26.2378 7.69922 27.3096 7.69922H72.6904C73.7622 7.69922 74.7531 8.27016 75.2891 9.19824L97.9795 48.5Z" fill="#4E5798" stroke="#54B06D" stroke-width="2"/>
<path d="M46.8 54.7143L55.104 50L46.8 45.2857V54.7143ZM65.296 42.41C65.504 43.1486 65.648 44.1386 65.744 45.3957C65.856 46.6529 65.904 47.7371 65.904 48.68L66 50C66 53.4414 65.744 55.9714 65.296 57.59C64.896 59.0043 63.968 59.9157 62.528 60.3086C61.776 60.5129 60.4 60.6543 58.288 60.7486C56.208 60.8586 54.304 60.9057 52.544 60.9057L50 61C43.296 61 39.12 60.7486 37.472 60.3086C36.032 59.9157 35.104 59.0043 34.704 57.59C34.496 56.8514 34.352 55.8614 34.256 54.6043C34.144 53.3471 34.096 52.2629 34.096 51.32L34 50C34 46.5586 34.256 44.0286 34.704 42.41C35.104 40.9957 36.032 40.0843 37.472 39.6914C38.224 39.4871 39.6 39.3457 41.712 39.2514C43.792 39.1414 45.696 39.0943 47.456 39.0943L50 39C56.704 39 60.88 39.2514 62.528 39.6914C63.968 40.0843 64.896 40.9957 65.296 42.41Z" fill="#92C658"/>
</svg>
