<svg width="100" height="100" viewBox="0 0 100 100" fill="none" xmlns="http://www.w3.org/2000/svg">
<path d="M97.9795 48.5C98.5153 49.4282 98.5153 50.5718 97.9795 51.5L75.2891 90.8008C74.7532 91.729 73.7622 92.3018 72.6904 92.3018H27.3096C26.2378 92.3018 25.2469 91.7298 24.7109 90.8018L2.02051 51.5C1.48468 50.5718 1.48468 49.4282 2.02051 48.5L24.7109 9.19922C25.2468 8.27102 26.2378 7.69922 27.3096 7.69922H72.6904C73.7622 7.69922 74.7531 8.27016 75.2891 9.19824L97.9795 48.5Z" fill="#4E5798" stroke="#54B06D" stroke-width="2"/>
<path d="M43.28 34H56.72C61.84 34 66 38.16 66 43.28V56.72C66 59.1812 65.0223 61.5416 63.282 63.282C61.5416 65.0223 59.1812 66 56.72 66H43.28C38.16 66 34 61.84 34 56.72V43.28C34 40.8188 34.9777 38.4584 36.718 36.718C38.4584 34.9777 40.8188 34 43.28 34ZM42.96 37.2C41.4324 37.2 39.9673 37.8069 38.8871 38.8871C37.8069 39.9673 37.2 41.4324 37.2 42.96V57.04C37.2 60.224 39.776 62.8 42.96 62.8H57.04C58.5676 62.8 60.0327 62.1931 61.1129 61.1129C62.1931 60.0327 62.8 58.5676 62.8 57.04V42.96C62.8 39.776 60.224 37.2 57.04 37.2H42.96ZM58.4 39.6C58.9304 39.6 59.4391 39.8107 59.8142 40.1858C60.1893 40.5609 60.4 41.0696 60.4 41.6C60.4 42.1304 60.1893 42.6391 59.8142 43.0142C59.4391 43.3893 58.9304 43.6 58.4 43.6C57.8696 43.6 57.3609 43.3893 56.9858 43.0142C56.6107 42.6391 56.4 42.1304 56.4 41.6C56.4 41.0696 56.6107 40.5609 56.9858 40.1858C57.3609 39.8107 57.8696 39.6 58.4 39.6ZM50 42C52.1217 42 54.1566 42.8429 55.6569 44.3431C57.1571 45.8434 58 47.8783 58 50C58 52.1217 57.1571 54.1566 55.6569 55.6569C54.1566 57.1571 52.1217 58 50 58C47.8783 58 45.8434 57.1571 44.3431 55.6569C42.8429 54.1566 42 52.1217 42 50C42 47.8783 42.8429 45.8434 44.3431 44.3431C45.8434 42.8429 47.8783 42 50 42ZM50 45.2C48.727 45.2 47.5061 45.7057 46.6059 46.6059C45.7057 47.5061 45.2 48.727 45.2 50C45.2 51.273 45.7057 52.4939 46.6059 53.3941C47.5061 54.2943 48.727 54.8 50 54.8C51.273 54.8 52.4939 54.2943 53.3941 53.3941C54.2943 52.4939 54.8 51.273 54.8 50C54.8 48.727 54.2943 47.5061 53.3941 46.6059C52.4939 45.7057 51.273 45.2 50 45.2Z" fill="#92C658"/>
</svg>
