<svg width="100" height="100" viewBox="0 0 100 100" fill="none" xmlns="http://www.w3.org/2000/svg">
<path d="M97.9795 48.5C98.5153 49.4282 98.5153 50.5718 97.9795 51.5L75.2891 90.8008C74.7532 91.729 73.7622 92.3018 72.6904 92.3018H27.3096C26.3047 92.3018 25.3717 91.7984 24.8174 90.9707L24.7109 90.8008L2.02051 51.5C1.51818 50.6299 1.48725 49.5706 1.92676 48.6768L2.02051 48.5L24.7109 9.19922C25.2468 8.27102 26.2378 7.69922 27.3096 7.69922H72.6904C73.7622 7.69922 74.7532 8.27101 75.2891 9.19922L75.29 9.19824L97.9795 48.5Z" fill="#4E5798" stroke="#54B06D" stroke-width="2"/>
<path d="M62.4444 34C63.3874 34 64.2918 34.3746 64.9586 35.0414C65.6254 35.7082 66 36.6126 66 37.5556V62.4444C66 63.3874 65.6254 64.2918 64.9586 64.9586C64.2918 65.6254 63.3874 66 62.4444 66H37.5556C36.6126 66 35.7082 65.6254 35.0414 64.9586C34.3746 64.2918 34 63.3874 34 62.4444V37.5556C34 36.6126 34.3746 35.7082 35.0414 35.0414C35.7082 34.3746 36.6126 34 37.5556 34H62.4444ZM61.5556 61.5556V52.1333C61.5556 50.5963 60.945 49.1221 59.8581 48.0353C58.7712 46.9484 57.2971 46.3378 55.76 46.3378C54.2489 46.3378 52.4889 47.2622 51.6356 48.6489V46.6756H46.6756V61.5556H51.6356V52.7911C51.6356 51.4222 52.7378 50.3022 54.1067 50.3022C54.7668 50.3022 55.3998 50.5644 55.8666 51.0312C56.3333 51.498 56.5956 52.131 56.5956 52.7911V61.5556H61.5556ZM40.8978 43.8844C41.6899 43.8844 42.4496 43.5698 43.0097 43.0097C43.5698 42.4496 43.8844 41.6899 43.8844 40.8978C43.8844 39.2444 42.5511 37.8933 40.8978 37.8933C40.1009 37.8933 39.3368 38.2099 38.7733 38.7733C38.2099 39.3368 37.8933 40.1009 37.8933 40.8978C37.8933 42.5511 39.2444 43.8844 40.8978 43.8844ZM43.3689 61.5556V46.6756H38.4444V61.5556H43.3689Z" fill="#92C658"/>
</svg>
