<svg width="100" height="100" viewBox="0 0 100 100" fill="none" xmlns="http://www.w3.org/2000/svg">
<path d="M97.9795 48.5C98.5153 49.4282 98.5153 50.5718 97.9795 51.5L75.2891 90.8008C74.7532 91.729 73.7622 92.3018 72.6904 92.3018H27.3096C26.2378 92.3018 25.2469 91.7298 24.7109 90.8018L2.02051 51.5C1.48468 50.5718 1.48468 49.4282 2.02051 48.5L24.7109 9.19922C25.2468 8.27102 26.2378 7.69922 27.3096 7.69922H72.6904C73.7622 7.69922 74.7531 8.27016 75.2891 9.19824L97.9795 48.5Z" fill="#4E5798" stroke="#54B06D" stroke-width="2"/>
<path d="M66 50.0401C66 41.186 58.832 34 50 34C41.168 34 34 41.186 34 50.0401C34 57.8035 39.504 64.2677 46.8 65.7594V54.8521H43.6V50.0401H46.8V46.0301C46.8 42.9343 49.312 40.416 52.4 40.416H56.4V45.2281H53.2C52.32 45.2281 51.6 45.9499 51.6 46.8321V50.0401H56.4V54.8521H51.6V66C59.68 65.198 66 58.3649 66 50.0401Z" fill="#92C658"/>
</svg>
