<svg width="100" height="100" viewBox="0 0 100 100" fill="none" xmlns="http://www.w3.org/2000/svg">
<path d="M97.9795 48.5C98.5153 49.4282 98.5153 50.5718 97.9795 51.5L75.2891 90.8008C74.7532 91.729 73.7622 92.3018 72.6904 92.3018H27.3096C26.2378 92.3018 25.2469 91.7298 24.7109 90.8018L2.02051 51.5C1.48468 50.5718 1.48468 49.4282 2.02051 48.5L24.7109 9.19922C25.2468 8.27102 26.2378 7.69922 27.3096 7.69922H72.6904C73.7622 7.69922 74.7531 8.27016 75.2891 9.19824L97.9795 48.5Z" fill="#4E5798" stroke="#54B06D" stroke-width="2"/>
<path d="M49.9999 53.9998C53.8604 53.9998 56.9998 50.8604 56.9998 46.9999C56.9998 43.1395 53.8604 40 49.9999 40C46.1395 40 43 43.1395 43 46.9999C43 50.8604 46.1395 53.9998 49.9999 53.9998ZM49.9999 43.5C51.9302 43.5 53.4999 45.0697 53.4999 46.9999C53.4999 48.9302 51.9302 50.4999 49.9999 50.4999C48.0697 50.4999 46.5 48.9302 46.5 46.9999C46.5 45.0697 48.0697 43.5 49.9999 43.5Z" fill="#92C658"/>
<path d="M48.985 67.6741C49.2814 67.8851 49.6362 67.9985 50 67.9985C50.3638 67.9985 50.7186 67.8851 51.015 67.6741C51.547 67.2979 64.0506 58.2697 63.9998 46.9998C63.9998 39.2807 57.7192 33 50 33C42.2808 33 36.0002 39.2807 36.0002 46.9911C35.9494 58.2697 48.453 67.2979 48.985 67.6741ZM50 36.5C55.7907 36.5 60.4999 41.2092 60.4999 47.0086C60.5366 54.775 52.821 61.7487 50 64.0359C47.1808 61.7469 39.4634 54.7715 39.5001 46.9998C39.5001 41.2092 44.2093 36.5 50 36.5Z" fill="#92C658"/>
</svg>
