<svg width="100" height="100" viewBox="0 0 100 100" fill="none" xmlns="http://www.w3.org/2000/svg">
<path d="M97.9795 48.5C98.5153 49.4282 98.5153 50.5718 97.9795 51.5L75.2891 90.8008C74.7532 91.729 73.7622 92.3018 72.6904 92.3018H27.3096C26.2378 92.3018 25.2469 91.7298 24.7109 90.8018L2.02051 51.5C1.48468 50.5718 1.48468 49.4282 2.02051 48.5L24.7109 9.19922C25.2468 8.27102 26.2378 7.69922 27.3096 7.69922H72.6904C73.7622 7.69922 74.7531 8.27016 75.2891 9.19824L97.9795 48.5Z" fill="#4E5798" stroke="#54B06D" stroke-width="2"/>
<path d="M37.2 63C36.32 63 35.5669 62.682 34.9408 62.0461C34.3147 61.4102 34.0011 60.6448 34 59.75V40.25C34 39.3562 34.3136 38.5914 34.9408 37.9555C35.568 37.3196 36.3211 37.0011 37.2 37H62.8C63.68 37 64.4336 37.3185 65.0608 37.9555C65.688 38.5925 66.0011 39.3573 66 40.25V59.75C66 60.6437 65.6869 61.4091 65.0608 62.0461C64.4347 62.6831 63.6811 63.0011 62.8 63H37.2ZM62.8 43.5L50.84 51.0969C50.7067 51.1781 50.5669 51.2393 50.4208 51.2805C50.2747 51.3217 50.1344 51.3417 50 51.3406C49.8656 51.3395 49.7259 51.3195 49.5808 51.2805C49.4357 51.2415 49.2955 51.1803 49.16 51.0969L37.2 43.5V59.75H62.8V43.5ZM50 48.375L62.8 40.25H37.2L50 48.375ZM37.2 43.9062V41.5094V41.55V41.5305V43.9062Z" fill="#92C658"/>
</svg>
