<svg width="100" height="100" viewBox="0 0 100 100" fill="none" xmlns="http://www.w3.org/2000/svg">
<path d="M97.9795 48.5C98.5153 49.4282 98.5153 50.5718 97.9795 51.5L75.2891 90.8008C74.7532 91.729 73.7622 92.3018 72.6904 92.3018H27.3096C26.2378 92.3018 25.2469 91.7298 24.7109 90.8018L2.02051 51.5C1.48468 50.5718 1.48468 49.4282 2.02051 48.5L24.7109 9.19922C25.2468 8.27102 26.2378 7.69922 27.3096 7.69922H72.6904C73.7622 7.69922 74.7531 8.27016 75.2891 9.19824L97.9795 48.5Z" fill="#4E5798" stroke="#54B06D" stroke-width="2"/>
<path d="M62.3667 64C59.1259 64 55.9241 63.2938 52.7611 61.8813C49.5981 60.4689 46.7204 58.4659 44.1278 55.8722C41.5352 53.2786 39.5327 50.4008 38.1202 47.2389C36.7078 44.077 36.001 40.8751 36 37.6333C36 37.1667 36.1556 36.7778 36.4667 36.4667C36.7778 36.1556 37.1667 36 37.6333 36H43.9333C44.2963 36 44.6204 36.1234 44.9056 36.3702C45.1907 36.617 45.3593 36.9084 45.4111 37.2444L46.4222 42.6889C46.4741 43.1037 46.4611 43.4537 46.3833 43.7389C46.3056 44.0241 46.163 44.2704 45.9556 44.4778L42.1833 48.2889C42.7019 49.2481 43.3173 50.1747 44.0298 51.0687C44.7422 51.9626 45.5267 52.8249 46.3833 53.6556C47.187 54.4593 48.0296 55.2049 48.9111 55.8924C49.7926 56.58 50.7259 57.2084 51.7111 57.7778L55.3667 54.1222C55.6 53.8889 55.9049 53.7141 56.2813 53.598C56.6578 53.4819 57.027 53.4492 57.3889 53.5L62.7556 54.5889C63.1185 54.6926 63.4167 54.8808 63.65 55.1536C63.8833 55.4263 64 55.7307 64 56.0667V62.3667C64 62.8333 63.8444 63.2222 63.5333 63.5333C63.2222 63.8444 62.8333 64 62.3667 64Z" fill="#92C658"/>
</svg>
